# xmcd
#
# Track frame offsets:
#	150
#	15729
#	31092
#	44708
#	60342
#	74301
#	87802
#	104401
#	118024
#	130521
#	146330
#	159110
#	170723
#
# Disc length: 2474 seconds
# Revision: 0
# Processed by: cddbd v1.5.2PL0 Copyright (c) Steve Scherf et al.
# Submitted via: dBpowerAMP V12.0
#
DISCID=a309a80d
DTITLE=David Church - The Early Years
DYEAR=1900
DGENRE=Country
TTITLE0=I Still Need and Still Want You
TTITLE1=Broken hearted Careless Me
TTITLE2=Sometime Love Ain't Enough
TTITLE3=Maybe I'll Never Know
TTITLE4=The Longer You Wait
TTITLE5=the Ghost of Eli Renfro
TTITLE6=The Old Cross Roads
TTITLE7=Rock Hearts
TTITLE8=Stone Cold Heart
TTITLE9=I Wonder
TTITLE10=It's Lonely Here
TTITLE11=Journey Up To Heaven
TTITLE12=Jesus Is The Power
EXTD=
EXTT0=
EXTT1=
EXTT2=
EXTT3=
EXTT4=
EXTT5=
EXTT6=
EXTT7=
EXTT8=
EXTT9=
EXTT10=
EXTT11=
EXTT12=
PLAYORDER=
